<svg xmlns="http://www.w3.org/2000/svg" width="1280" height="360" viewBox="0 0 1280 360" font-family="Georgia, 'Times New Roman', serif">
  <rect width="1280" height="360" fill="#f7f6f3"/>
  <rect width="7" height="360" fill="#11505f"/>
  <text x="92" y="152" font-size="76" font-weight="700" fill="#1b2329" letter-spacing="-1.5">ToothPrint</text>
  <line x1="95" y1="180" x2="372" y2="180" stroke="#11505f" stroke-width="3"/>
  <text x="95" y="224" font-size="25" fill="#11505f" font-family="'Helvetica Neue', Arial, sans-serif">Recognise a person by their teeth — and certify what changed.</text>
  <text x="95" y="268" font-size="15.5" fill="#8a969c" font-family="ui-monospace, 'SFMono-Regular', Menlo, Consolas, monospace" letter-spacing="0.4">conformal-certified  ·  Rank-1 0.995  ·  0.87 at 50% tooth loss  ·  open source</text>
  <text x="95" y="312" font-size="13" fill="#8a969c" font-family="ui-monospace, 'SFMono-Regular', Menlo, Consolas, monospace">github.com/Archerkattri/toothprint</text>
  <g><path d="M 896,95 L 1015,54 L 1134,95" fill="none" stroke="#c98a1e" stroke-width="1" stroke-opacity="0.5" stroke-dasharray="2 4"/><path d="M -7,-9 C -7,-13 7,-13 7,-9 C 7,-3 6,2 4,6 C 3,8 1,7 0.5,4.5 C 0,7 -3,8 -4,6 C -6,2 -7,-3 -7,-9 Z" transform="translate(867.7,138.5) rotate(-79.2) scale(1.01)" fill="none" stroke="#11505f" stroke-width="1.7" stroke-opacity="0.82"/><path d="M -7,-9 C -7,-13 7,-13 7,-9 C 7,-3 6,2 4,6 C 3,8 1,7 0.5,4.5 C 0,7 -3,8 -4,6 C -6,2 -7,-3 -7,-9 Z" transform="translate(878.0,115.7) rotate(-66.0) scale(1.08)" fill="none" stroke="#11505f" stroke-width="1.7" stroke-opacity="0.82"/><path d="M -7,-9 C -7,-13 7,-13 7,-9 C 7,-3 6,2 4,6 C 3,8 1,7 0.5,4.5 C 0,7 -3,8 -4,6 C -6,2 -7,-3 -7,-9 Z" transform="translate(895.5,95.1) rotate(-52.8) scale(1.14)" fill="none" stroke="#11505f" stroke-width="1.7" stroke-opacity="0.82"/><path d="M -7,-9 C -7,-13 7,-13 7,-9 C 7,-3 6,2 4,6 C 3,8 1,7 0.5,4.5 C 0,7 -3,8 -4,6 C -6,2 -7,-3 -7,-9 Z" transform="translate(919.4,77.9) rotate(-39.6) scale(1.20)" fill="none" stroke="#11505f" stroke-width="1.7" stroke-opacity="0.82"/><path d="M -7,-9 C -7,-13 7,-13 7,-9 C 7,-3 6,2 4,6 C 3,8 1,7 0.5,4.5 C 0,7 -3,8 -4,6 C -6,2 -7,-3 -7,-9 Z" transform="translate(948.3,64.8) rotate(-26.4) scale(1.24)" fill="none" stroke="#11505f" stroke-width="1.7" stroke-opacity="0.82"/><path d="M -7,-9 C -7,-13 7,-13 7,-9 C 7,-3 6,2 4,6 C 3,8 1,7 0.5,4.5 C 0,7 -3,8 -4,6 C -6,2 -7,-3 -7,-9 Z" transform="translate(980.7,56.7) rotate(-13.2) scale(1.26)" fill="none" stroke="#11505f" stroke-width="1.7" stroke-opacity="0.82"/><path d="M -7,-9 C -7,-13 7,-13 7,-9 C 7,-3 6,2 4,6 C 3,8 1,7 0.5,4.5 C 0,7 -3,8 -4,6 C -6,2 -7,-3 -7,-9 Z" transform="translate(1015.0,54.0) rotate(0.0) scale(1.27)" fill="#11505f" stroke="#11505f" stroke-width="1.7" stroke-opacity="1"/><path d="M -7,-9 C -7,-13 7,-13 7,-9 C 7,-3 6,2 4,6 C 3,8 1,7 0.5,4.5 C 0,7 -3,8 -4,6 C -6,2 -7,-3 -7,-9 Z" transform="translate(1049.3,56.7) rotate(13.2) scale(1.26)" fill="none" stroke="#11505f" stroke-width="1.7" stroke-opacity="0.82"/><path d="M -7,-9 C -7,-13 7,-13 7,-9 C 7,-3 6,2 4,6 C 3,8 1,7 0.5,4.5 C 0,7 -3,8 -4,6 C -6,2 -7,-3 -7,-9 Z" transform="translate(1081.7,64.8) rotate(26.4) scale(1.24)" fill="none" stroke="#11505f" stroke-width="1.7" stroke-opacity="0.82"/><path d="M -7,-9 C -7,-13 7,-13 7,-9 C 7,-3 6,2 4,6 C 3,8 1,7 0.5,4.5 C 0,7 -3,8 -4,6 C -6,2 -7,-3 -7,-9 Z" transform="translate(1110.6,77.9) rotate(39.6) scale(1.20)" fill="none" stroke="#11505f" stroke-width="1.7" stroke-opacity="0.82"/><path d="M -7,-9 C -7,-13 7,-13 7,-9 C 7,-3 6,2 4,6 C 3,8 1,7 0.5,4.5 C 0,7 -3,8 -4,6 C -6,2 -7,-3 -7,-9 Z" transform="translate(1134.5,95.1) rotate(52.8) scale(1.14)" fill="none" stroke="#11505f" stroke-width="1.7" stroke-opacity="0.82"/><path d="M -7,-9 C -7,-13 7,-13 7,-9 C 7,-3 6,2 4,6 C 3,8 1,7 0.5,4.5 C 0,7 -3,8 -4,6 C -6,2 -7,-3 -7,-9 Z" transform="translate(1152.0,115.7) rotate(66.0) scale(1.08)" fill="none" stroke="#11505f" stroke-width="1.7" stroke-opacity="0.82"/><path d="M -7,-9 C -7,-13 7,-13 7,-9 C 7,-3 6,2 4,6 C 3,8 1,7 0.5,4.5 C 0,7 -3,8 -4,6 C -6,2 -7,-3 -7,-9 Z" transform="translate(1162.3,138.5) rotate(79.2) scale(1.01)" fill="none" stroke="#11505f" stroke-width="1.7" stroke-opacity="0.82"/><circle cx="896" cy="95" r="3.4" fill="#c98a1e"/><circle cx="1015" cy="54" r="3.4" fill="#c98a1e"/><circle cx="1134" cy="95" r="3.4" fill="#c98a1e"/></g>
</svg>